<?xml version="1.0" encoding="UTF-8" standalone="no"?>
<!-- Created with Inkscape (http://www.inkscape.org/) -->
<svg
   xmlns:dc="http://purl.org/dc/elements/1.1/"
   xmlns:cc="http://web.resource.org/cc/"
   xmlns:rdf="http://www.w3.org/1999/02/22-rdf-syntax-ns#"
   xmlns:svg="http://www.w3.org/2000/svg"
   xmlns="http://www.w3.org/2000/svg"
   xmlns:xlink="http://www.w3.org/1999/xlink"
   xmlns:sodipodi="http://sodipodi.sourceforge.net/DTD/sodipodi-0.dtd"
   xmlns:inkscape="http://www.inkscape.org/namespaces/inkscape"
   width="16.00189"
   height="16.120922"
   id="svg2985"
   sodipodi:version="0.32"
   inkscape:version="0.45.1"
   version="1.0"
   sodipodi:docbase="/home/manu/Projects/workspace.xplib.de/phpUnderControl/trunk/data/webapps/cruisecontrol/images/php-under-control"
   sodipodi:docname="notice.svg"
   inkscape:output_extension="org.inkscape.output.svg.inkscape">
  <defs
     id="defs2987">
    <radialGradient
       inkscape:collect="always"
       xlink:href="#linearGradient3340"
       id="radialGradient8152"
       gradientUnits="userSpaceOnUse"
       gradientTransform="matrix(3.658819,0,0,2.080782,-62.4164,12.76204)"
       cx="21.929186"
       cy="-3.2182934"
       fx="21.929186"
       fy="-3.2182934"
       r="13" />
    <radialGradient
       r="13"
       fy="-3.2182934"
       fx="21.929186"
       cy="-3.2182934"
       cx="21.929186"
       gradientTransform="matrix(3.658819,0,0,2.080782,-62.4164,12.76204)"
       gradientUnits="userSpaceOnUse"
       id="radialGradient4745"
       xlink:href="#linearGradient3340"
       inkscape:collect="always" />
    <radialGradient
       inkscape:collect="always"
       xlink:href="#linearGradient3340"
       id="radialGradient3232"
       gradientUnits="userSpaceOnUse"
       gradientTransform="matrix(3.658819,0,0,2.080782,-62.4164,12.76204)"
       cx="21.929186"
       cy="-3.2182934"
       fx="21.929186"
       fy="-3.2182934"
       r="13" />
    <linearGradient
       inkscape:collect="always"
       id="linearGradient3340">
      <stop
         offset="0"
         id="stop3342"
         style="stop-color:#ffffff;stop-opacity:1;" />
      <stop
         offset="1"
         id="stop3344"
         style="stop-color:#ffffff;stop-opacity:0;" />
    </linearGradient>
    <radialGradient
       inkscape:collect="always"
       xlink:href="#linearGradient3340"
       id="radialGradient8195"
       gradientUnits="userSpaceOnUse"
       gradientTransform="matrix(3.658819,0,0,2.080782,-62.4164,12.76204)"
       cx="21.929186"
       cy="-3.2182934"
       fx="21.929186"
       fy="-3.2182934"
       r="13" />
  </defs>
  <sodipodi:namedview
     id="base"
     pagecolor="#ffffff"
     bordercolor="#666666"
     borderopacity="1.0"
     gridtolerance="10000"
     guidetolerance="10"
     objecttolerance="10"
     inkscape:pageopacity="0.0"
     inkscape:pageshadow="2"
     inkscape:zoom="1.4"
     inkscape:cx="223.28572"
     inkscape:cy="90.753856"
     inkscape:document-units="px"
     inkscape:current-layer="layer1"
     inkscape:window-width="872"
     inkscape:window-height="623"
     inkscape:window-x="4"
     inkscape:window-y="173" />
  <metadata
     id="metadata2990">
    <rdf:RDF>
      <cc:Work
         rdf:about="">
        <dc:format>image/svg+xml</dc:format>
        <dc:type
           rdf:resource="http://purl.org/dc/dcmitype/StillImage" />
      </cc:Work>
    </rdf:RDF>
  </metadata>
  <g
     inkscape:label="Layer 1"
     inkscape:groupmode="layer"
     id="layer1"
     transform="translate(-1519.9216,-329.17641)">
    <g
       style="display:inline"
       inkscape:label="Layer 1"
       id="g8142"
       transform="matrix(0.6119218,0,0,0.6153937,1513.2424,322.52542)">
      <path
         transform="matrix(0.894862,0,0,0.9657,3.855776,2.660348)"
         d="M 36.5 22 A 14 13 0 1 1  8.5,22 A 14 13 0 1 1  36.5 22 z"
         sodipodi:ry="13"
         sodipodi:rx="14"
         sodipodi:cy="22"
         sodipodi:cx="22.5"
         id="path8144"
         style="color:#000000;fill:#888a85;fill-opacity:1;fill-rule:evenodd;stroke:#555753;stroke-width:1.17360854;stroke-linecap:square;stroke-linejoin:round;marker:none;marker-start:none;marker-mid:none;marker-end:none;stroke-miterlimit:4;stroke-dasharray:none;stroke-dashoffset:0;stroke-opacity:1;visibility:visible;display:inline;overflow:visible"
         sodipodi:type="arc" />
      <path
         transform="matrix(0.821429,0,0,0.821429,4.285117,4.191455)"
         d="M 38 24 A 14 14 0 1 1  10,24 A 14 14 0 1 1  38 24 z"
         sodipodi:ry="14"
         sodipodi:rx="14"
         sodipodi:cy="24"
         sodipodi:cx="24"
         id="path8146"
         style="color:#000000;fill:none;fill-opacity:1;fill-rule:evenodd;stroke:#eeeeec;stroke-width:1.32816648;stroke-linecap:square;stroke-linejoin:round;marker:none;marker-start:none;marker-mid:none;marker-end:none;stroke-miterlimit:4;stroke-dasharray:none;stroke-dashoffset:0;stroke-opacity:1;visibility:visible;display:inline;overflow:visible"
         sodipodi:type="arc" />
      <path
         sodipodi:nodetypes="cccsc"
         id="path8148"
         d="M 23.84315,11.90574 C 17.563618,11.985335 12.438727,16.897799 12.03065,23.09324 C 18.148473,25.61002 25.90107,21.642017 35.172655,19.711354 C 34.484245,16.962785 30.617935,11.90574 23.9994,11.90574 C 23.947693,11.90574 23.894703,11.905087 23.84315,11.90574 z "
         style="opacity:0.6;fill:url(#radialGradient8152);fill-opacity:1;fill-rule:evenodd;stroke:none;stroke-width:0.25pt;stroke-linecap:butt;stroke-linejoin:miter;stroke-opacity:1;display:inline" />
      <path
         style="font-size:27.80392075px;font-style:italic;font-variant:normal;font-weight:bold;font-stretch:normal;text-align:start;line-height:125%;writing-mode:lr-tb;text-anchor:start;opacity:0.64420483;fill:#ededed;fill-opacity:1;stroke:none;stroke-width:1px;stroke-linecap:butt;stroke-linejoin:miter;stroke-opacity:1;font-family:URW Chancery L"
         d="M 24.971944,18.842362 C 25.643872,18.239944 25.690213,18.193603 26.47799,17.591185 C 26.338971,17.313146 26.223121,17.127787 26.176781,17.058277 C 26.037762,16.780238 26.014591,16.757067 25.829232,16.316839 C 25.782892,16.224159 25.736552,16.131479 25.690212,16.01563 C 25.574363,16.108309 25.435343,16.200989 25.365833,16.270499 C 25.273154,16.363179 25.087794,16.502199 24.856095,16.687558 C 24.740245,16.780238 24.578055,16.896087 24.369526,17.035107 C 24.276847,17.104617 24.184167,17.174127 24.091487,17.220466 C 24.253676,17.730204 24.462206,18.100925 24.971944,18.842362 M 26.57067,27.600597 C 24.369528,28.782262 24.323186,28.805433 24.021977,28.805433 C 23.767108,28.805433 23.604918,28.550564 23.604918,28.156675 C 23.604918,27.924976 23.674428,27.484747 23.813448,26.975009 C 24.995113,22.109327 25.226814,21.182525 25.226814,20.997166 C 25.226814,20.858146 25.110964,20.765466 24.948775,20.765466 C 24.554886,20.765466 23.187858,21.530075 21.287925,22.80442 L 21.241585,23.453179 C 22.60861,22.711741 22.724461,22.665401 22.93299,22.665401 C 23.11835,22.665401 23.21103,22.804421 23.21103,23.08246 C 23.21103,23.383668 23.141519,23.708049 22.793971,25.028734 C 21.704985,29.083468 21.704984,29.083473 21.704984,29.662721 C 21.704984,30.218799 21.936683,30.589518 22.261062,30.589518 C 22.654951,30.589518 23.280541,30.288308 24.508546,29.500531 C 24.948774,29.222492 25.389004,28.944453 25.829232,28.643244 C 26.037761,28.527394 26.246291,28.388374 26.47799,28.249355 L 26.57067,27.600597"
         id="text12074" />
    </g>
  </g>
</svg>
