<?xml version="1.0" encoding="UTF-8" standalone="no"?>
<!-- Created with Inkscape (http://www.inkscape.org/) -->
<svg
   xmlns:dc="http://purl.org/dc/elements/1.1/"
   xmlns:cc="http://web.resource.org/cc/"
   xmlns:rdf="http://www.w3.org/1999/02/22-rdf-syntax-ns#"
   xmlns:svg="http://www.w3.org/2000/svg"
   xmlns="http://www.w3.org/2000/svg"
   xmlns:xlink="http://www.w3.org/1999/xlink"
   xmlns:sodipodi="http://sodipodi.sourceforge.net/DTD/sodipodi-0.dtd"
   xmlns:inkscape="http://www.inkscape.org/namespaces/inkscape"
   width="16.00189"
   height="16.120922"
   id="svg2985"
   sodipodi:version="0.32"
   inkscape:version="0.45.1"
   version="1.0"
   sodipodi:docbase="/home/manu/Projects/workspace.xplib.de/phpUnderControl/trunk/data/webapps/cruisecontrol/images/php-under-control"
   sodipodi:docname="unknown.svg"
   inkscape:output_extension="org.inkscape.output.svg.inkscape">
  <defs
     id="defs2987">
    <radialGradient
       inkscape:collect="always"
       xlink:href="#linearGradient3340"
       id="radialGradient3256"
       gradientUnits="userSpaceOnUse"
       gradientTransform="matrix(3.658819,0,0,2.080782,-62.4164,12.76204)"
       cx="21.929186"
       cy="-3.2182934"
       fx="21.929186"
       fy="-3.2182934"
       r="13" />
    <radialGradient
       inkscape:collect="always"
       xlink:href="#linearGradient3340"
       id="radialGradient8152"
       gradientUnits="userSpaceOnUse"
       gradientTransform="matrix(3.658819,0,0,2.080782,-62.4164,12.76204)"
       cx="21.929186"
       cy="-3.2182934"
       fx="21.929186"
       fy="-3.2182934"
       r="13" />
    <radialGradient
       r="13"
       fy="-3.2182934"
       fx="21.929186"
       cy="-3.2182934"
       cx="21.929186"
       gradientTransform="matrix(3.658819,0,0,2.080782,-62.4164,12.76204)"
       gradientUnits="userSpaceOnUse"
       id="radialGradient4745"
       xlink:href="#linearGradient3340"
       inkscape:collect="always" />
    <radialGradient
       inkscape:collect="always"
       xlink:href="#linearGradient3340"
       id="radialGradient3232"
       gradientUnits="userSpaceOnUse"
       gradientTransform="matrix(3.658819,0,0,2.080782,-62.4164,12.76204)"
       cx="21.929186"
       cy="-3.2182934"
       fx="21.929186"
       fy="-3.2182934"
       r="13" />
    <linearGradient
       inkscape:collect="always"
       id="linearGradient3340">
      <stop
         offset="0"
         id="stop3342"
         style="stop-color:#ffffff;stop-opacity:1;" />
      <stop
         offset="1"
         id="stop3344"
         style="stop-color:#ffffff;stop-opacity:0;" />
    </linearGradient>
    <radialGradient
       inkscape:collect="always"
       xlink:href="#linearGradient3340"
       id="radialGradient8195"
       gradientUnits="userSpaceOnUse"
       gradientTransform="matrix(3.658819,0,0,2.080782,-62.4164,12.76204)"
       cx="21.929186"
       cy="-3.2182934"
       fx="21.929186"
       fy="-3.2182934"
       r="13" />
  </defs>
  <sodipodi:namedview
     id="base"
     pagecolor="#ffffff"
     bordercolor="#666666"
     borderopacity="1.0"
     gridtolerance="10000"
     guidetolerance="10"
     objecttolerance="10"
     inkscape:pageopacity="0.0"
     inkscape:pageshadow="2"
     inkscape:zoom="1.4"
     inkscape:cx="223.28572"
     inkscape:cy="90.753856"
     inkscape:document-units="px"
     inkscape:current-layer="layer1"
     inkscape:window-width="872"
     inkscape:window-height="623"
     inkscape:window-x="4"
     inkscape:window-y="173" />
  <metadata
     id="metadata2990">
    <rdf:RDF>
      <cc:Work
         rdf:about="">
        <dc:format>image/svg+xml</dc:format>
        <dc:type
           rdf:resource="http://purl.org/dc/dcmitype/StillImage" />
      </cc:Work>
    </rdf:RDF>
  </metadata>
  <g
     inkscape:label="Layer 1"
     inkscape:groupmode="layer"
     id="layer1"
     transform="translate(-1893.6518,-329.72387)">
    <g
       transform="matrix(0.6119218,0,0,0.6153937,1886.9726,323.07288)"
       id="g3246"
       inkscape:label="Layer 1"
       style="display:inline">
      <path
         sodipodi:type="arc"
         style="color:#000000;fill:#babdb6;fill-opacity:1;fill-rule:evenodd;stroke:#888a85;stroke-width:1.17360854;stroke-linecap:square;stroke-linejoin:round;marker:none;marker-start:none;marker-mid:none;marker-end:none;stroke-miterlimit:4;stroke-dasharray:none;stroke-dashoffset:0;stroke-opacity:1;visibility:visible;display:inline;overflow:visible"
         id="path3248"
         sodipodi:cx="22.5"
         sodipodi:cy="22"
         sodipodi:rx="14"
         sodipodi:ry="13"
         d="M 36.5 22 A 14 13 0 1 1  8.5,22 A 14 13 0 1 1  36.5 22 z"
         transform="matrix(0.894862,0,0,0.9657,3.855776,2.660348)" />
      <path
         sodipodi:type="arc"
         style="color:#000000;fill:none;fill-opacity:1;fill-rule:evenodd;stroke:#eeeeec;stroke-width:1.32816648;stroke-linecap:square;stroke-linejoin:round;marker:none;marker-start:none;marker-mid:none;marker-end:none;stroke-miterlimit:4;stroke-dasharray:none;stroke-dashoffset:0;stroke-opacity:1;visibility:visible;display:inline;overflow:visible"
         id="path3252"
         sodipodi:cx="24"
         sodipodi:cy="24"
         sodipodi:rx="14"
         sodipodi:ry="14"
         d="M 38 24 A 14 14 0 1 1  10,24 A 14 14 0 1 1  38 24 z"
         transform="matrix(0.821429,0,0,0.821429,4.285117,4.191455)" />
      <path
         style="opacity:0.6;fill:url(#radialGradient3256);fill-opacity:1;fill-rule:evenodd;stroke:none;stroke-width:0.25pt;stroke-linecap:butt;stroke-linejoin:miter;stroke-opacity:1;display:inline"
         d="M 23.84315,11.90574 C 17.563618,11.985335 12.438727,16.897799 12.03065,23.09324 C 18.148473,25.61002 25.90107,21.642017 35.172655,19.711354 C 34.484245,16.962785 30.617935,11.90574 23.9994,11.90574 C 23.947693,11.90574 23.894703,11.905087 23.84315,11.90574 z "
         id="path3254"
         sodipodi:nodetypes="cccsc" />
      <path
         style="font-size:22.10526276px;font-style:normal;font-variant:normal;font-weight:bold;font-stretch:normal;text-align:start;line-height:125%;writing-mode:lr-tb;text-anchor:start;opacity:0.5040431;fill:#ffffff;fill-opacity:1;stroke:none;stroke-width:1px;stroke-linecap:butt;stroke-linejoin:miter;stroke-opacity:1;font-family:Bitstream Vera Sans"
         d="M 25.628938,27.032983 L 21.732454,27.032983 L 21.732454,26.504097 C 21.73245,25.914055 21.851179,25.392365 22.088642,24.939027 C 22.326096,24.478509 22.826199,23.895656 23.58895,23.190467 L 24.27974,22.564439 C 24.689889,22.190271 24.988512,21.837681 25.175607,21.506667 C 25.369884,21.175675 25.467027,20.844672 25.467034,20.513657 C 25.467027,20.009969 25.294329,19.617803 24.948942,19.337157 C 24.603541,19.049341 24.121428,18.905427 23.502602,18.905413 C 22.919743,18.905427 22.290118,19.027754 21.613724,19.272395 C 20.937323,19.509867 20.232143,19.866055 19.498181,20.34096 L 19.498181,16.951774 C 20.368862,16.64957 21.163988,16.426503 21.883564,16.282572 C 22.603132,16.138674 23.297518,16.066717 23.966726,16.0667 C 25.722475,16.066717 27.060878,16.426503 27.98194,17.146059 C 28.902981,17.85845 29.363507,18.901829 29.363518,20.276199 C 29.363507,20.981391 29.223191,21.614614 28.942569,22.17587 C 28.661925,22.72995 28.18341,23.327194 27.507022,23.967605 L 26.816232,24.582839 C 26.326915,25.028981 26.006705,25.388767 25.855603,25.662198 C 25.704485,25.928446 25.62893,26.22347 25.628938,26.547272 L 25.628938,27.032983 M 21.732454,28.630434 L 25.628938,28.630434 L 25.628938,32.47295 L 21.732454,32.47295 L 21.732454,28.630434"
         id="text5226" />
    </g>
  </g>
</svg>
